<svg xmlns="http://www.w3.org/2000/svg" viewBox="0 0 512 512" role="img" aria-label="Sang Min Lee icon">
  <defs>
    <linearGradient id="bg" x1="74" y1="32" x2="438" y2="480" gradientUnits="userSpaceOnUse">
      <stop offset="0" stop-color="#15151a"/>
      <stop offset="0.55" stop-color="#08080a"/>
      <stop offset="1" stop-color="#101014"/>
    </linearGradient>
    <linearGradient id="gold" x1="132" y1="110" x2="382" y2="406" gradientUnits="userSpaceOnUse">
      <stop offset="0" stop-color="#f7d58a"/>
      <stop offset="0.42" stop-color="#e8a849"/>
      <stop offset="1" stop-color="#c97f2b"/>
    </linearGradient>
    <linearGradient id="teal" x1="158" y1="352" x2="380" y2="120" gradientUnits="userSpaceOnUse">
      <stop offset="0" stop-color="#58d7c8"/>
      <stop offset="1" stop-color="#7aa7ff"/>
    </linearGradient>
    <filter id="soft-shadow" x="-20%" y="-20%" width="140%" height="140%">
      <feDropShadow dx="0" dy="18" stdDeviation="18" flood-color="#000" flood-opacity="0.38"/>
    </filter>
  </defs>

  <rect width="512" height="512" rx="116" fill="url(#bg)"/>
  <path d="M96 154h320M96 256h320M96 358h320M154 96v320M256 96v320M358 96v320" stroke="#f7d58a" stroke-opacity=".045" stroke-width="10"/>
  <path d="M118 383 211 145l92 238 91-238" fill="none" stroke="url(#teal)" stroke-width="20" stroke-linecap="round" stroke-linejoin="round" opacity=".92"/>
  <path d="M332 148c-25-27-92-34-126-4-34 29-22 75 38 91l46 12c65 17 83 69 41 104-44 37-129 30-158-11" fill="none" stroke="url(#gold)" stroke-width="48" stroke-linecap="round" stroke-linejoin="round" filter="url(#soft-shadow)"/>
  <path d="M332 148c-25-27-92-34-126-4-34 29-22 75 38 91l46 12c65 17 83 69 41 104-44 37-129 30-158-11" fill="none" stroke="#fff5cf" stroke-opacity=".22" stroke-width="14" stroke-linecap="round" stroke-linejoin="round"/>
  <circle cx="118" cy="383" r="22" fill="#08080a" stroke="url(#teal)" stroke-width="14"/>
  <circle cx="211" cy="145" r="18" fill="#08080a" stroke="url(#teal)" stroke-width="12"/>
  <circle cx="303" cy="383" r="18" fill="#08080a" stroke="url(#teal)" stroke-width="12"/>
  <circle cx="394" cy="145" r="22" fill="#08080a" stroke="url(#teal)" stroke-width="14"/>
  <rect x="18" y="18" width="476" height="476" rx="100" fill="none" stroke="#fff3c4" stroke-opacity=".08" stroke-width="8"/>
</svg>
